<svg id="svg" version="1.1" viewBox="0 0 300 300" width="300" height="300" xmlns="http://www.w3.org/2000/svg"><svg xmlns="http://www.w3.org/2000/svg"><defs><clipPath id="clip-1"><rect x="0" y="0" transform="scale(0.14648,0.14648)" width="2048" height="2048" fill="none"/></clipPath><linearGradient x1="126.11895" y1="137.90039" x2="131.13647" y2="148.35791" gradientUnits="userSpaceOnUse" id="color-1"><stop offset="0" stop-color="#f9701e"/><stop offset="1" stop-color="#feb458"/></linearGradient></defs><g clip-path="url(#clip-1)" fill="none" fill-rule="nonzero" stroke="none" stroke-width="1" stroke-linecap="butt" stroke-linejoin="miter" stroke-miterlimit="10" stroke-dasharray="" stroke-dashoffset="0" font-family="none" font-weight="none" font-size="none" text-anchor="none" style="mix-blend-mode: normal"><path d="M0,0h300v300h-300z" fill="#ffffff"/><path d="M81.1478,128.65547l9.72012,-0.05405l-0.04717,43.37563c-3.36973,-0.02051 -6.7396,-0.01318 -10.10933,0.0249c0.05098,-8.53125 0.04292,-17.0625 -0.02402,-25.59214c-4.11079,6.87437 -8.14116,14.08579 -12.18926,21.03354c-1.77598,-0.01758 -3.5521,0.00586 -5.32705,0.07031c-4.24014,-6.53613 -8.0313,-13.84131 -12.25107,-20.49463l-0.01538,4.26416l0.0542,20.69385l-9.98203,0.00586l0.03193,-31.74463c3.22383,-2.89893 7.18784,-6.75981 10.19487,-9.87349c4.96685,7.93755 9.82031,16.53706 14.64141,24.60835c5.17632,-8.72812 10.27749,-17.50122 15.30278,-26.31768z" fill="#62ac4a"/><path d="M188.52832,126.76523c3.33105,0.03208 6.66211,0.046 9.99463,0.04175l0.02637,15.86221c2.95605,-3.02124 5.84912,-4.08164 10.10742,-4.16982c3.46143,-0.03794 7.15869,0.93516 9.65625,3.43901c4.61572,4.62949 3.89648,11.69004 3.89795,17.68418l0.00146,12.3457c-3.33838,-0.03076 -6.67822,-0.0249 -10.0166,0.01465c0.08643,-3.40576 0.0249,-7.09277 0.0293,-10.52051c0.01465,-3.17285 0.22266,-6.7749 -0.36914,-9.854c-1.00928,-5.25293 -7.96289,-5.67422 -11.2207,-2.32764c-0.854,0.87305 -1.46045,1.9585 -1.75781,3.14209c-0.56836,2.19434 -0.38379,6.5083 -0.37646,8.94434l0.01172,10.6084c-3.3252,-0.02051 -6.65039,-0.01611 -9.97559,0.01318z" fill="#62ac4a"/><path d="M166.11914,128.23506c7.4502,-0.43975 13.09424,2.03203 18.15234,7.33975c-2.1123,2.15112 -4.05322,4.35776 -6.23291,6.4998c-0.36914,-0.38906 -0.74414,-0.77241 -1.125,-1.1502c-2.61035,-2.5481 -6.13916,-3.93252 -9.78662,-3.83804c-17.68799,0.28359 -16.95117,27.67925 0.89648,26.72563c4.35791,-0.23291 6.96387,-1.68164 9.89648,-4.8457l1.26416,1.23633c1.68896,1.65381 3.35156,3.33545 4.98633,5.04346c-0.20947,0.24609 -0.42041,0.49219 -0.63428,0.73535c-7.87646,8.9458 -23.98389,8.6748 -32.61035,0.95801c-8.94419,-8.00098 -9.72979,-22.21655 -1.71387,-31.15605c4.58496,-5.11274 10.22021,-7.14214 16.90723,-7.54834z" fill="#62ac4a"/><path d="M242.10352,138.64072c0.13184,-0.00659 0.26514,-0.01143 0.39844,-0.01465c4.36963,-0.10562 9.30176,0.57158 12.57129,3.77578c4.62158,4.53076 3.80859,11.54443 3.79248,17.51367c-0.02197,4.03857 -0.01758,8.07861 0.01172,12.11719c-3.07178,-0.06738 -6.34277,-0.03223 -9.42041,-0.02783c0.01172,-1.23779 -0.01465,-2.51367 -0.0249,-3.75439c-0.87744,1.06201 -1.6582,1.68164 -2.73193,2.52539c-0.2666,-1.8457 -0.35156,-3.66504 -0.67383,-5.54297c3.03223,-2.02148 2.7583,-3.90967 2.74219,-7.14404l-1.81348,-0.03516c-0.81738,-1.07666 -3.01465,-4.33154 -4.25684,-4.5249c-1.51611,0.58447 -2.3042,1.91309 -3.2915,3.09668c-2.26611,2.71582 -4.78857,5.76123 -0.90381,8.50781c0.19189,0.0835 0.41455,0.20068 0.60645,0.2959c0.09229,0.80127 -0.47607,5.85205 -0.59326,6.99463c-3.38818,-0.32959 -6.06445,-0.78223 -8.63086,-3.1626c-3.55371,-3.20947 -3.78955,-9.60205 -0.34424,-12.98145c4.54102,-4.45459 13.23779,-3.6416 19.2041,-3.66211c-0.26074,-3.375 -1.50586,-5.49316 -5.20898,-5.92529c-4.0752,-0.47432 -8.13574,0.31201 -11.45508,2.82422l-3.36768,-7.04048c4.57031,-2.68477 8.09473,-3.58535 13.39014,-3.8354z" fill="#62ac4a"/><path d="M131.11611,143.06396c0.57832,0.32798 12.03179,26.07129 13.29961,28.92041c-3.6479,-0.0249 -7.29595,-0.02051 -10.94385,0.01172l-3.79058,-8.88281l-19.7354,0.00732l-1.89243,4.49561c-0.55386,1.42676 -1.2498,2.95313 -1.86182,4.36816l-11.39824,0.02344c2.17676,-1.74902 5.42695,-4.96436 7.55361,-6.95947c3.76055,-3.52734 7.80923,-7.14404 11.47515,-10.7373c0.38789,0.44824 0.77974,0.89355 1.17539,1.33594c2.34463,2.60449 3.19819,1.86768 5.22876,-0.5083l6.17959,0.00293c-0.74912,-1.60693 -1.46177,-3.22998 -2.13765,-4.86914c2.06616,-1.9834 4.66245,-5.00508 6.84785,-7.2085z" fill="#62ac4a"/><path d="M114.53892,128.62881l10.45649,-0.00249c1.14111,2.60713 2.30859,5.20254 3.50259,7.78579c-1.92876,1.27866 -5.54443,4.30942 -7.13159,5.96558c-0.51548,-1.19268 -1.10303,-2.34946 -1.67959,-3.51387l-0.59355,1.65278c-0.70034,1.86694 -1.57397,3.97456 -2.46562,5.75098c-0.7311,-0.72422 -1.50249,-1.54277 -2.33979,-2.12388c-2.04595,-0.08452 -4.41211,0.0501 -6.60059,-0.01699c0.70825,-1.3563 1.55186,-3.50933 2.2043,-4.98633z" fill="#62ac4a"/><path d="M116.98813,148.96143c7.61323,-7.76338 17.7353,-16.3147 28.14346,-19.96802c-5.08037,3.41104 -9.82515,7.29712 -14.17046,11.60566c-1.88877,1.8457 -3.63955,3.81768 -5.53154,5.68184c-1.34253,1.68003 -2.96309,3.30894 -4.36567,5.01694c-1.25112,1.40332 -2.48159,2.82568 -3.69111,4.26563c-3.42495,-3.55225 -5.47017,-5.97803 -9.22207,-9.50347c1.84248,-0.05874 3.68276,-0.17417 5.51807,-0.34644c0.60132,0.73301 2.52935,2.47588 3.31934,3.24785z" fill="url(#color-1)"/><path d="M121.06392,151.29785c-0.50757,-0.79541 -0.93442,-0.29297 -2.00127,-0.66504c-0.41895,-0.40869 -0.40913,-0.47021 -0.57642,-1.05469c0.13154,-0.26953 3.7875,-4.05322 4.16646,-4.35234l0.20405,0.03911c-0.25122,0.70854 -1.29551,1.1373 -1.6062,1.94458c0.41118,0.06445 0.4749,0.04248 0.83203,0.2373c0.0501,0.82764 -0.07661,0.91553 0.64673,1.29785c0.74312,-0.42041 1.60239,-1.87646 2.48818,-2.58501l0.21211,0.12129c-1.34253,1.68003 -2.96309,3.30894 -4.36567,5.01694z" fill="#f88a37"/><path d="M106.3519,146.8418c1.01162,0.59912 4.89932,4.72852 5.94756,5.80664c-3.87847,3.74268 -7.78022,7.46045 -11.70483,11.15479l-3.30967,3.07324c2.92266,-6.72803 6.08584,-13.32568 9.06694,-20.03467z" fill="#62ac4a"/><path d="M37.59536,128.64507c3.83262,-0.02534 7.66538,-0.01699 11.49785,0.02505l-5.78936,5.63936c-1.87368,1.92129 -3.77402,3.81636 -5.70029,5.68491c0.07031,-3.69917 -0.00044,-7.63345 -0.0082,-11.34932z" fill="#62ac4a"/><path d="M242.54736,155.34521c0.35156,0.18896 3.79395,4.59961 4.49707,5.38916c-1.21582,0.07178 -1.9541,0.07031 -3.17285,0.01025c0.07764,3.14795 0.81738,8.14746 1.21729,11.39795l-1.88818,0.10547c-0.93311,0.02783 -2.00098,0.12305 -2.94434,0.1875c0.41309,-3.89795 0.79834,-7.79736 1.15723,-11.69971c-1.00488,-0.01904 -1.94238,0.04395 -2.94434,0.10107c1.45605,-1.79297 2.74365,-3.60937 4.07813,-5.4917z" fill="#f88a37"/></g></svg></svg>